<svg width="36" height="34" viewBox="0 0 36 34" fill="none" xmlns="http://www.w3.org/2000/svg">
<path d="M17.9998 6.18311L16.3865 4.52486C12.5998 0.632359 5.65626 1.97561 3.14976 6.86936C1.97301 9.17111 1.70751 12.4944 3.85626 16.7356C5.92626 20.8194 10.2328 25.7109 17.9998 31.0389C25.7668 25.7109 30.071 20.8194 32.1433 16.7356C34.292 12.4921 34.0288 9.17111 32.8498 6.86936C30.3433 1.97561 23.3998 0.630109 19.613 4.52261L17.9998 6.18311ZM17.9998 33.7501C-16.4995 10.9531 7.37751 -6.83989 17.6038 2.57186C17.7388 2.69636 17.8708 2.82461 17.9998 2.95661C18.1265 2.82378 18.2586 2.69617 18.3958 2.57411C28.6198 -6.84439 52.499 10.9509 17.9998 33.7501Z" fill="black"/>
</svg>
